<?xml version="1.0" encoding="utf-8"?>
<!-- Generator: Adobe Illustrator 28.0.0, SVG Export Plug-In . SVG Version: 6.00 Build 0)  -->
<svg version="1.1" id="Layer_2_00000157280565340856031270000004884038537449162671_"
	 xmlns="http://www.w3.org/2000/svg" xmlns:xlink="http://www.w3.org/1999/xlink" x="0px" y="0px" viewBox="0 0 165 165"
	 style="enable-background:new 0 0 165 165;" xml:space="preserve">
<style type="text/css">
	.st0{fill:none;}
	.st1{fill:#FFFEFE;}
	.st2{fill:#FEF3F0;}
	.st3{fill:#E84992;}
	.st4{fill:#5A65AD;}
	.st5{fill:#B74CA1;}
	.st6{fill:#F45571;}
	.st7{fill:#F5586C;}
	.st8{fill:#5C5DA9;}
	.st9{fill:#B258A9;}
	.st10{fill:#F88126;}
	.st11{fill:#F77B2C;}
	.st12{fill:#F7605B;}
	.st13{fill:#D44C9F;}
	.st14{fill:#EF4B8B;}
	.st15{fill:#E4569E;}
	.st16{fill:#C24CA0;}
	.st17{fill:#F65C61;}
	.st18{fill:#F3537B;}
	.st19{fill:#F77735;}
	.st20{fill:#F8703B;}
	.st21{fill:#F96849;}
	.st22{fill:#F25385;}
	.st23{fill:#6E59A8;}
	.st24{fill:#F8745B;}
	.st25{fill:#F86156;}
	.st26{fill:#F96B44;}
	.st27{fill:#F9674C;}
	.st28{fill:#8155A6;}
	.st29{fill:#9052A5;}
	.st30{fill:#9E53A6;}
</style>
<g id="Layer_1-2">
	<g>
		<path class="st0" d="M140.6,9.1L140.6,9.1C102.8-3,62.2-3,24.4,9.1l0,0c-7.3,2.3-13,8.1-15.4,15.3l0,0C-3,62.2-3,102.8,9.1,140.6
			l0,0c2.3,7.3,8.1,13,15.4,15.4l0,0c37.8,12.1,78.4,12.1,116.2,0l0,0c7.3-2.3,13-8.1,15.4-15.4l0,0c12.1-37.8,12.1-78.4,0-116.2
			l0,0C153.6,17.1,147.9,11.4,140.6,9.1z"/>
	</g>
</g>
<g>
	<g>
		<path class="st1" d="M-0.5-0.5c55.3,0,110.7,0,166,0c0,55.3,0,110.7,0,166c-55.3,0-110.7,0-166,0C-0.5,110.2-0.5,54.8-0.5-0.5z
			 M35.3,102c-2-0.1-4-0.2-6-0.3c-2.3,0-4.6,0-7,0c-2.6,0-5.3,0-7.9,0c-0.3-1.7-0.9-3.4-1-5.1c-0.1-10,0.1-20.1-0.2-30.1
			c-0.1-2.5-1.6-5.1-2.5-7.6c-1.8-1.1-3.5-2.1-5.9-3.6c0,19.2,0,37.1,0,55.3c1.7,0,3.2,0,4.6,0c1.7,0,3.3,0,5,0c2.6,0,5.3,0,7.9,0
			c2.3,0,4.6,0,7,0c2,0,4,0,6,0c1.7,0,3.3,0,5-0.1c2-0.4,4.1-0.9,6.1-1.3c4.1-2.1,4.8-5.8,5-10c0.2-8.4,0.6-16.8,1-25.2
			c1.6-1.9,3.3-3.7,4.9-5.6c2.9,0.2,5.9,0.4,8.8,0.5c1.7,3,3.5,6,5.2,9c0,10.8,0,21.6,0,32.4c6.6-0.4,9.7-3.7,10-10.2
			c0.3-8.7,0.7-17.4,1-26.1c2.2-2.1,4.5-4.2,6.7-6.3c2,0.1,4,0.2,5.9,0.2c1.5,1.4,3.1,2.7,4.6,4.1c0.5,2.2,1.4,4.4,1.5,6.6
			c0.3,6.2-0.1,12.5,0.4,18.7c0.2,3.1,1.7,6.1,2.6,9.2c2.3,1.3,4.6,2.7,6.9,4l0.5,0c0,0,0.5,0,0.5,0c2.3-0.1,4.6-0.1,7-0.2
			c2,0,4,0,6,0c2,0,4,0,6,0c1.7,0,3.3,0,5,0c1.7,0,3.3,0,5,0c2,0,4,0,6,0c2.1-1.2,4.1-2.4,6.2-3.7c5.3-2.2,6.3-6.9,6.3-11.7
			c-0.1-5.2-0.6-10.6-6.3-13.3c-2-1.2-4-2.4-6-3.6c-2-0.1-4-0.1-6-0.2c-1.7,0-3.3,0-5,0c-2,0-4,0-6,0c-1.7,0-3.3-0.1-5-0.1
			c-0.7-0.3-1.4-0.7-2.1-1c-0.3-2.6-0.5-5.2-0.8-7.8c1.6-0.7,3.3-1.3,4.9-2c2.3,0,4.6,0,6.9-0.1c2.3,0,4.6,0,7,0c2.3,0,4.6,0,7,0
			c7.6,0.3,11.2-3.2,10.7-10.7c-3.5,0-7.1,0-10.7,0c-2.3,0-4.7,0-7,0c-2.3,0-4.6,0-6.9,0c-2.3,0-4.6,0-6.9,0c-2,0.2-4,0.5-6,0.7
			c-1.7,1.2-3.4,2.5-5.1,3.7c-1.6,3.7-3.1,7.5-4.7,11.2c-1.3-2.1-2.5-4.2-3.8-6.3c-1.8-1.9-3.5-3.9-5.3-5.8c-2.3-1-4.6-2-6.9-3
			c-2-0.1-4-0.1-6-0.2c-3,1.4-6,2.7-8.9,4.1c-1.6,0.7-3.2,1.4-4.7,2c-2.7-1.9-5.4-3.8-8.2-5.6c-3.3-0.1-6.6-0.1-9.9-0.2
			c-2.4,1.2-4.7,2.4-7.1,3.7c-2.1,2.7-4.1,5.4-6.2,8.1c-0.9,3.6-2.3,7.2-2.5,10.8c-0.4,7.6-0.1,15.1-0.2,22.7c0,1.5-0.7,3-1.1,4.5
			C38.6,105.3,36.9,103.7,35.3,102z"/>
		<path class="st2" d="M111.8,110.8l-0.5,0c0,0-0.5,0-0.5,0c0.1-3.1,0.1-6.2,0.2-9.4c0.2-9,0.4-18,0.5-27c1.3,3.3,2.7,6.6,4,9.8
			c1.3,1,2.7,2,4,3c1.7,0.5,3.4,1,5.1,1.5c1.7,0,3.3,0,5,0.1c2,0,4,0,6,0c1.7,0,3.3,0,5,0c1.6,0.1,3.2,0.3,4.8,0.4
			c4.9,3.1,5.1,5.7,1,10.2c-1.9,0.2-3.9,0.3-5.8,0.5c-1.7,0-3.3,0-5,0c-1.7,0-3.3,0-5,0c-2,0-4,0-6,0c-2.4,0.2-4.7,0.4-7.1,0.6
			C113.1,102.5,110.9,105.8,111.8,110.8z"/>
		<path class="st3" d="M75.2,63c1.6-0.7,3.2-1.4,4.7-2c0.8,4.4,1.5,8.8,2.3,13.2c-0.3,8.7-0.7,17.4-1,26.1c-0.3,6.5-3.3,9.8-10,10.2
			c0-10.8,0-21.6,0-32.4c0.6-3.3,1-6.6,1.8-9.9C73.5,66.4,74.5,64.7,75.2,63z"/>
		<path class="st4" d="M9.4,110.7c-1.4,0-2.9,0-4.6,0c0-18.2,0-36.1,0-55.3c2.4,1.4,4.1,2.5,5.9,3.6c-0.4,1.8-1.3,3.6-1.3,5.4
			C9.4,79.8,9.4,95.3,9.4,110.7z"/>
		<path class="st5" d="M52.3,74.1c-0.3,8.4-0.7,16.8-1,25.2c-0.1,4.2-0.9,7.9-5,10c-0.4-2.1-1.1-4.1-1.1-6.2
			c-0.1-9.7,0-19.4-0.1-29.1c0-1.7-0.8-3.3-1.2-5c2.1-2.7,4.1-5.4,6.2-8.1c0,3.2-0.1,6.5,0.2,9.6C50.4,71.7,51.6,72.9,52.3,74.1z"/>
		<path class="st6" d="M104,106.8c-0.9-3.1-2.4-6.1-2.6-9.2c-0.5-6.2-0.1-12.5-0.4-18.7c-0.1-2.2-1-4.4-1.5-6.6
			c0.8-4.1,1.6-8.1,2.4-12.2c1.8,1.9,3.5,3.9,5.3,5.8c-0.5,1.7-1.3,3.3-1.3,5c-0.1,10.3,0,20.5-0.1,30.8
			C105.7,103.4,104.6,105.1,104,106.8z"/>
		<path class="st7" d="M104,106.8c0.6-1.7,1.8-3.4,1.8-5.2c0.2-10.2,0-20.5,0.1-30.8c0-1.7,0.8-3.3,1.3-5c1.3,2.1,2.5,4.2,3.8,6.3
			c0.2,0.8,0.4,1.5,0.6,2.3c-0.2,9-0.4,18-0.5,27c-0.1,3.1-0.1,6.2-0.2,9.4C108.6,109.5,106.3,108.2,104,106.8z"/>
		<path class="st8" d="M9.4,110.7c0-15.4,0-30.9,0.1-46.3c0-1.8,0.8-3.6,1.3-5.4c0.9,2.5,2.5,5,2.5,7.6c0.3,10,0.1,20.1,0.2,30.1
			c0,1.7,0.6,3.4,1,5.1c0,3,0,5.9,0,8.9C12.8,110.7,11.1,110.7,9.4,110.7z"/>
		<path class="st9" d="M43.9,68.9c0.4,1.7,1.2,3.3,1.2,5c0.1,9.7,0,19.4,0.1,29.1c0,2.1,0.7,4.1,1.1,6.2c-2,0.5-4.1,0.9-6.1,1.4
			c0-1.2,0-2.4,0-3.7c0.4-1.5,1-3,1.1-4.5c0.1-7.6-0.2-15.2,0.2-22.7C41.7,76.1,43.1,72.6,43.9,68.9z"/>
		<path class="st10" d="M152.7,81.9c5.7,2.7,6.2,8.1,6.3,13.3c0.1,4.9-1,9.5-6.3,11.7c-0.4-3.1-1.2-6.2-1.1-9.3
			C151.8,92.4,152.4,87.1,152.7,81.9z"/>
		<path class="st11" d="M152.7,81.9c-0.4,5.2-1,10.5-1.1,15.7c-0.1,3.1,0.7,6.2,1.1,9.3c-2.1,1.2-4.1,2.4-6.2,3.7
			c-0.1-3.7-0.1-7.4-0.2-11.2c4.2-4.5,3.9-7.1-1-10.2c0.4-3.6,0.8-7.3,1.2-10.9C148.7,79.5,150.7,80.7,152.7,81.9z"/>
		<path class="st12" d="M119.6,87.3c-1.3-1-2.7-2-4-3c0-7.8,0-15.5,0.1-23.3c1.7-1.2,3.4-2.5,5.1-3.7c0.4,4,0.7,8,1.1,12
			c0.3,2.6,0.5,5.2,0.8,7.8c-0.6,1.2-1.5,2.4-1.8,3.7C120.3,82.9,120,85.1,119.6,87.3z"/>
		<path class="st13" d="M57.2,57.2c3.3,0.1,6.6,0.1,9.9,0.2c-0.3,3.9-0.6,7.7-1,11.6c-2.9-0.2-5.9-0.4-8.8-0.5
			C57.2,64.7,57.2,60.9,57.2,57.2z"/>
		<path class="st14" d="M82.3,74.2c-0.8-4.4-1.5-8.8-2.3-13.2c3-1.4,6-2.7,8.9-4.1c0,3.7,0,7.4,0,11C86.7,70,84.5,72.1,82.3,74.2z"
			/>
		<path class="st10" d="M147.6,56.6c3.6,0,7.1,0,10.7,0c0.5,7.5-3.1,10.9-10.7,10.7C147.6,63.7,147.6,60.1,147.6,56.6z"/>
		<path class="st15" d="M66.1,69c0.3-3.9,0.6-7.7,1-11.6c2.7,1.9,5.4,3.8,8.2,5.6c-0.7,1.7-1.7,3.4-2.1,5.2
			c-0.8,3.2-1.2,6.6-1.8,9.9C69.6,75,67.8,72,66.1,69z"/>
		<path class="st16" d="M57.2,57.2c0,3.8,0.1,7.5,0.1,11.3c-1.6,1.9-3.3,3.7-4.9,5.6c-0.7-1.2-1.9-2.4-2-3.6
			c-0.3-3.2-0.2-6.4-0.2-9.6C52.5,59.6,54.8,58.4,57.2,57.2z"/>
		<path class="st17" d="M115.7,61c0,7.8,0,15.5-0.1,23.3c-1.3-3.3-2.7-6.6-4-9.8c-0.2-0.8-0.4-1.5-0.6-2.3
			C112.6,68.4,114.2,64.7,115.7,61z"/>
		<path class="st18" d="M101.9,60.1c-0.8,4.1-1.6,8.1-2.4,12.2c-1.5-1.4-3.1-2.7-4.6-4.1c0-3.7,0-7.4,0.1-11.1
			C97.3,58.1,99.6,59.1,101.9,60.1z"/>
		<path class="st19" d="M147.6,56.6c0,3.6,0,7.1,0,10.7c-2.3,0-4.6,0-7,0c0-3.6,0-7.1,0-10.7C143,56.6,145.3,56.6,147.6,56.6z"/>
		<path class="st20" d="M140.7,56.6c0,3.6,0,7.1,0,10.7c-2.3,0-4.6,0-7,0c0-3.5,0-7.1,0-10.6C136,56.6,138.3,56.6,140.7,56.6z"/>
		<path class="st21" d="M133.7,56.6c0,3.5,0,7.1,0,10.6c-2.3,0-4.6,0-6.9,0.1c0-3.6,0-7.2,0-10.7C129.1,56.5,131.4,56.6,133.7,56.6z
			"/>
		<path class="st22" d="M94.9,57.1c0,3.7,0,7.4-0.1,11.1c-2-0.1-4-0.2-5.9-0.2c0-3.7,0-7.4,0-11C90.9,57,92.9,57,94.9,57.1z"/>
		<path class="st23" d="M14.4,110.7c0-3,0-5.9,0-8.9c2.6,0,5.3,0,7.9,0c0,3,0,5.9,0,8.9C19.7,110.7,17.1,110.7,14.4,110.7z"/>
		<path class="st24" d="M126.8,56.5c0,3.6,0,7.2,0,10.7c-1.6,0.7-3.3,1.3-4.9,2c-0.4-4-0.7-8-1.1-12C122.8,57,124.8,56.8,126.8,56.5
			z"/>
		<path class="st25" d="M117.6,100.6c2.4-0.2,4.7-0.4,7.1-0.6c0,3.6,0,7.1,0,10.7c-2,0-4,0-6,0C118.4,107.3,118,103.9,117.6,100.6z"
			/>
		<path class="st26" d="M135.7,88.9c-2,0-4,0-6,0c0-3.6,0-7.1,0-10.7c2,0,4,0,6,0C135.7,81.8,135.7,85.3,135.7,88.9z"/>
		<path class="st27" d="M124.8,110.7c0-3.6,0-7.1,0-10.7c2,0,4,0,6,0c0,3.6,0,7.1,0,10.7C128.7,110.7,126.7,110.7,124.8,110.7z"/>
		<path class="st19" d="M146.5,99.5c0.1,3.7,0.1,7.4,0.2,11.2c-2,0-4,0-6,0c0-3.6,0-7.1,0-10.7C142.6,99.8,144.5,99.6,146.5,99.5z"
			/>
		<path class="st19" d="M146.7,78.4c-0.4,3.6-0.8,7.3-1.2,10.9c-1.6-0.1-3.2-0.3-4.8-0.4c0-3.6,0-7.1,0-10.7
			C142.7,78.2,144.7,78.3,146.7,78.4z"/>
		<path class="st28" d="M22.4,110.7c0-3,0-5.9,0-8.9c2.3,0,4.6,0,7,0c0,3,0,5.9,0,8.9C27,110.7,24.7,110.7,22.4,110.7z"/>
		<path class="st17" d="M117.6,100.6c0.4,3.4,0.8,6.7,1.2,10.1c-2.3,0.1-4.6,0.1-7,0.2C110.9,105.8,113.1,102.5,117.6,100.6z"/>
		<path class="st27" d="M129.7,78.2c0,3.6,0,7.1,0,10.7c-1.7,0-3.3,0-5-0.1c0-3.6,0-7.2,0-10.7C126.4,78.1,128.1,78.2,129.7,78.2z"
			/>
		<path class="st20" d="M140.7,78.2c0,3.6,0,7.1,0,10.7c-1.7,0-3.3,0-5,0c0-3.6,0-7.1,0-10.7C137.3,78.2,139,78.2,140.7,78.2z"/>
		<path class="st26" d="M130.7,110.7c0-3.6,0-7.1,0-10.7c1.7,0,3.3,0,5,0c0,3.6,0,7.1,0,10.7C134,110.7,132.4,110.7,130.7,110.7z"/>
		<path class="st20" d="M135.7,110.7c0-3.6,0-7.1,0-10.7c1.7,0,3.3,0,5,0c0,3.6,0,7.1,0,10.7C139,110.7,137.3,110.7,135.7,110.7z"/>
		<path class="st29" d="M29.3,110.7c0-3,0-5.9,0-8.9c2,0.1,4,0.2,6,0.3c0,2.9,0,5.7,0,8.6C33.3,110.7,31.3,110.7,29.3,110.7z"/>
		<path class="st25" d="M124.7,78.1c0,3.6,0,7.2,0,10.7c-1.7-0.5-3.4-1-5.1-1.5c0.4-2.2,0.6-4.4,1.2-6.5c0.4-1.3,1.2-2.5,1.8-3.7
			C123.3,77.4,124,77.8,124.7,78.1z"/>
		<path class="st30" d="M35.3,110.7c0-2.9,0-5.7,0-8.6c1.6,1.6,3.3,3.3,4.9,4.9c0,1.2,0,2.4,0,3.7C38.6,110.6,36.9,110.6,35.3,110.7
			z"/>
	</g>
</g>
</svg>
