<?xml version="1.0" encoding="utf-8"?>
<!-- Generator: Adobe Illustrator 28.0.0, SVG Export Plug-In . SVG Version: 6.00 Build 0)  -->
<svg version="1.1" id="Layer_2_00000173140624831080744140000008274763162277643669_"
	 xmlns="http://www.w3.org/2000/svg" xmlns:xlink="http://www.w3.org/1999/xlink" x="0px" y="0px" viewBox="0 0 251 251"
	 style="enable-background:new 0 0 251 251;" xml:space="preserve">
<style type="text/css">
	.st0{display:none;fill:#FFFFFF;}
	.st1{display:none;}
	.st2{display:inline;fill:#6A0CF8;}
	.st3{display:inline;fill:url(#SVGID_1_);}
	.st4{display:inline;fill:#330099;}
	.st5{fill:#FEFDFD;}
	.st6{fill:#FEF2F1;}
	.st7{fill:#5E64D9;}
	.st8{fill:#E84893;}
	.st9{fill:#B451B6;}
	.st10{fill:#FD576E;}
	.st11{fill:#FE695B;}
	.st12{fill:#FE8026;}
	.st13{fill:#FE5C5F;}
	.st14{fill:#FE6749;}
	.st15{fill:#FE5F5A;}
	.st16{fill:#FE7138;}
	.st17{fill:#FA5179;}
	.st18{fill:#FE802B;}
	.st19{fill:#C54BAC;}
	.st20{fill:#F04B8B;}
	.st21{fill:#FE6748;}
	.st22{fill:#E255A2;}
	.st23{fill:#FE7B2D;}
	.st24{fill:#FE6848;}
	.st25{fill:#D44DA5;}
	.st26{fill:#F65185;}
	.st27{fill:#FE6F3C;}
	.st28{fill:#FE7532;}
	.st29{fill:#6C5BD1;}
	.st30{fill:#7F56CA;}
	.st31{fill:#FE7736;}
	.st32{fill:#9052C3;}
	.st33{fill:#9E54BF;}
</style>
<g id="Layer_1-2">
	<g>
		<path class="st0" d="M213.9,13.8L213.9,13.8C156.4-4.6,94.6-4.6,37.1,13.8l0,0C26,17.3,17.3,26,13.8,37.2l0,0
			c-18.4,57.5-18.4,119.3,0,176.7l0,0c3.5,11.1,12.3,19.8,23.4,23.4l0,0c57.5,18.4,119.3,18.4,176.7,0l0,0
			c11.1-3.6,19.8-12.3,23.4-23.4l0,0c18.4-57.5,18.4-119.3,0-176.7l0,0C233.7,26,225,17.3,213.9,13.8z"/>
		<g class="st1">
			<path class="st2" d="M168,165.5c-10.7,0-20.7-4.2-28.3-11.7l-14.1-14.1l-14.1,14.1c-7.6,7.6-17.6,11.7-28.3,11.7
				s-20.7-4.2-28.3-11.7c-15.6-15.6-15.6-41,0-56.6s41-15.6,56.6,0l14.1,14.1l14.1-14.1c15.6-15.6,41-15.6,56.6,0l-14.1,14.1
				c-7.8-7.8-20.5-7.8-28.3,0l-14.1,14.1l14.1,14.1c3.8,3.8,8.8,5.9,14.1,5.9s10.4-2.1,14.1-5.9l14.1,14.1
				C188.7,161.3,178.7,165.5,168,165.5L168,165.5z M83.1,105.5c-5.1,0-10.2,1.9-14.1,5.8c-7.8,7.8-7.8,20.5,0,28.3s20.5,7.8,28.3,0
				l14.1-14.1l-14.1-14.1C93.4,107.5,88.2,105.5,83.1,105.5z"/>
			
				<linearGradient id="SVGID_1_" gradientUnits="userSpaceOnUse" x1="43.1" y1="871.4562" x2="196.2" y2="871.4562" gradientTransform="matrix(1 0 0 1 0 -746)">
				<stop  offset="0.13" style="stop-color:#6A0CF8"/>
				<stop  offset="0.56" style="stop-color:#FD16B8"/>
				<stop  offset="0.97" style="stop-color:#FDBA7F"/>
			</linearGradient>
			<path class="st3" d="M54.8,97.2c-7.8,7.8-11.7,18-11.7,28.3h20c0-5.1,1.9-10.2,5.8-14.1s9-5.8,14.1-5.8s10.2,1.9,14.1,5.8
				l14.1,14.1l14.1,14.1l14.1,14.1c7.6,7.6,17.6,11.7,28.3,11.7s20.7-4.2,28.3-11.7l-14.1-14.1c-3.8,3.8-8.8,5.9-14.1,5.9
				s-10.4-2.1-14.1-5.9l-14.1-14.1l0,0l-14.1-14.1l-14.1-14.1C95.8,81.6,70.4,81.6,54.8,97.2L54.8,97.2z"/>
			
				<rect x="115.5" y="115.5" transform="matrix(0.7071 -0.7071 0.7071 0.7071 -52.0083 125.5131)" class="st4" width="20" height="20"/>
		</g>
	</g>
</g>
<g>
	<g>
		<path class="st5" d="M231,231c-70.3,0-140.7,0-211,0c0-70.3,0-140.7,0-211c70.3,0,140.7,0,211,0C231,90.3,231,160.7,231,231z
			 M66.7,161.3c2.1,0,4.2-0.1,6.3-0.1c8.8,0.3,13.7-4.2,14.1-13c0.4-11.1,0.8-22.2,1.3-33.3c2.9-2.6,5.8-5.3,8.7-7.9
			c2.4,0.2,4.8,0.3,7.2,0.5c2.6,2.9,5.1,5.8,7.7,8.7c0,15,0,30,0,45.2c9.9-1.4,13.3-5.6,13.6-15.5c0.4-10.7,0.6-21.4,0.9-32.2
			c2.4-2.1,4.8-4.3,7.2-6.4c2.5-0.1,5-0.2,7.6-0.3c2.8,2.6,5.6,5.3,8.5,7.9c0.3,10.4,0.6,20.8,0.9,31.2c0.3,9.2,4,13.8,12.2,15.4
			l0.6,0c0,0,0.6,0,0.6,0c5.1-0.1,10.1-0.1,15.2-0.2c4.6,0,9.3,0,13.9,0c4.2,0,8.4,0,12.6,0c3.4-1.1,6.8-2.3,10.2-3.4
			c11.3-11.6,11.3-22.5,0-34.4c-2.5-1.1-5.1-2.2-7.6-3.3c-2.5-0.1-5.1-0.1-7.6-0.2c-2.9,0-5.9,0-8.8,0c-3.8-0.1-7.6-0.1-11.4-0.2
			c-7-5.2-6.5-10.1,1.3-13.8c3.3,0,6.7,0,10,0c2.9,0,5.9,0,8.8,0c3,0,5.9,0,8.9,0c9.6,0.4,14.2-4.1,13.6-13.6c-4.5,0-9,0-13.6,0
			c-3,0-5.9,0-8.9,0c-2.9,0-5.9,0-8.8,0c-3.4,0-6.7,0-10.1,0c-3.5,1.2-7,2.5-10.4,3.7c-6,3.8-8.1,9.5-8.3,16.2
			c-3.4-4.8-6.9-9.5-10.3-14.3c-3.4-1.6-6.8-3.3-10.2-4.9c-3,0-5.9,0-8.9,0c-4.1,2.4-8.1,4.7-12.2,7.1c-3.3,3.5-4.3-0.9-6.4-1.9
			c-2.7-1.6-5.3-3.2-8-4.8c-3.4-0.2-6.8-0.4-10.2-0.6c-3.8,1.7-7.6,3.3-11.4,5c-8.6,6.1-10.8,15-11,24.8c-0.2,9.4,0,18.9-0.1,28.3
			c0,1.9-0.9,3.8-1.4,5.6c-2.1-2.1-4.2-4.2-6.3-6.3c-2.5-0.1-5-0.2-7.6-0.4c-3.4,0-6.7,0-10.1,0c-3.3-0.1-6.6-0.3-9.9-0.4
			c-0.1-15.1-0.1-30.2-0.2-45.4c-0.1-7.6-3.5-11.3-10.9-11.7c0,22.8,0,45.6,0,68.8c3.8,0,7.4,0,10.9,0c3.4,0,6.7,0,10.1,0
			c3.4,0,6.7,0,10.1,0C61.7,161.3,64.2,161.3,66.7,161.3z"/>
		<path class="st6" d="M164,161.5l-0.6,0c0,0-0.6,0-0.6,0c0.1-3.1,0.3-6.2,0.3-9.4c0.2-12.3,0.4-24.6,0.6-36.9
			c-0.4,6.5,2.8,11.2,7.8,14.9c3,1.1,6,2.3,8.9,3.4c3.8,0,7.6,0,11.4,0.1c2.9,0,5.9,0,8.8,0c2.1,0.1,4.2,0.2,6.3,0.2
			c1.6,1.6,3.3,3.3,4.9,4.9c0.1,0.8,0.1,1.7,0.2,2.5c-2.1,2.1-4.2,4.3-6.3,6.4c-4.2,0-8.4,0-12.6,0c-4.6,0-9.3,0-13.9,0
			C168.5,147.1,163.4,151.8,164,161.5z"/>
		<path class="st7" d="M39,161.3c-3.5,0-7,0-10.9,0c0-23.2,0-46,0-68.8c7.3,0.4,10.8,4.1,10.9,11.7c0.1,15.1,0.1,30.2,0.2,45.4
			C39.1,153.5,39,157.4,39,161.3z"/>
		<path class="st8" d="M115.1,98.4c2,0.9,3,5.3,6.4,1.9c0.7,2.6,1.3,5.2,2.2,7.7c0.7,2,1.9,3.8,2.9,5.7c-0.3,10.7-0.6,21.4-0.9,32.2
			c-0.3,9.9-3.8,14.2-13.6,15.5c0-15.2,0-30.2,0-45.2C113.1,110.2,114.1,104.3,115.1,98.4z"/>
		<path class="st9" d="M88.4,114.9c-0.4,11.1-0.8,22.2-1.3,33.3c-0.3,8.8-5.2,13.3-14.1,13c0-1.5,0-3-0.1-4.5
			c0.5-1.9,1.4-3.7,1.4-5.6c0.1-9.4-0.1-18.9,0.1-28.3C74.8,113,77,104,85.6,98C86.5,103.6,87.5,109.2,88.4,114.9z"/>
		<path class="st10" d="M163.8,115.3c-0.2,12.3-0.4,24.6-0.6,36.9c-0.1,3.1-0.2,6.2-0.3,9.4c-8.2-1.6-11.9-6.2-12.2-15.4
			c-0.3-10.4-0.6-20.8-0.9-31.2c1-5.6,2-11.2,3-16.9c3.4,4.8,6.9,9.5,10.3,14.3C163.3,113.4,163.5,114.3,163.8,115.3z"/>
		<path class="st11" d="M180.5,133.6c-3-1.1-6-2.3-8.9-3.4c-0.1-11.3-0.1-22.6-0.2-34c3.5-1.2,7-2.5,10.4-3.7c0,4.5,0,9.1,0,13.6
			c-7.9,3.7-8.3,8.5-1.3,13.8C180.5,124.5,180.5,129,180.5,133.6z"/>
		<path class="st12" d="M212.1,141.3c-0.1-0.8-0.1-1.7-0.2-2.5c0.9-1.7,2.2-3.3,2.6-5.2c0.7-3.3,1-6.7,1.4-10.1
			c11.3,11.9,11.3,22.8,0,34.4c-0.4-3.7-0.7-7.4-1.4-11.1C214.1,144.9,212.9,143.2,212.1,141.3z"/>
		<path class="st13" d="M171.3,96.2c0.1,11.3,0.1,22.6,0.2,34c-5-3.7-8.2-8.4-7.8-14.9c-0.2-1-0.5-1.9-0.7-2.9
			C163.3,105.7,165.4,100,171.3,96.2z"/>
		<path class="st14" d="M179.2,147.7c4.6,0,9.3,0,13.9,0c0,4.5,0,9.1,0,13.6c-4.6,0-9.3,0-13.9,0
			C179.2,156.8,179.2,152.3,179.2,147.7z"/>
		<path class="st15" d="M179.2,147.7c0,4.5,0,9.1,0,13.6c-5.1,0.1-10.1,0.1-15.2,0.2C163.4,151.8,168.5,147.1,179.2,147.7z"/>
		<path class="st16" d="M193.1,161.3c0-4.5,0-9.1,0-13.6c4.2,0,8.4,0,12.6,0c0,4.5,0,9.1,0,13.6
			C201.6,161.3,197.3,161.3,193.1,161.3z"/>
		<path class="st17" d="M152.8,98.1c-1,5.6-2,11.2-3,16.9c-2.8-2.6-5.6-5.3-8.5-7.9c0.4-4.6,0.8-9.2,1.3-13.8
			C146,94.8,149.4,96.5,152.8,98.1z"/>
		<path class="st18" d="M209.6,92.5c4.5,0,9.1,0,13.6,0c0.6,9.5-4,14-13.6,13.6C209.6,101.6,209.6,97.1,209.6,92.5z"/>
		<path class="st19" d="M88.4,114.9c-0.9-5.6-1.9-11.3-2.8-16.9c3.8-1.7,7.6-3.3,11.4-5c0,4.7,0,9.3,0.1,14
			C94.2,109.6,91.3,112.2,88.4,114.9z"/>
		<path class="st20" d="M126.6,113.7c-1-1.9-2.2-3.7-2.9-5.7c-0.9-2.5-1.5-5.2-2.2-7.7c4.1-2.4,8.1-4.7,12.2-7.1
			c0,4.7,0,9.4,0.1,14.1C131.4,109.4,129,111.6,126.6,113.7z"/>
		<path class="st21" d="M180.5,133.6c0-4.6,0-9.1,0-13.7c3.8,0.1,7.6,0.1,11.4,0.2c0,4.5,0,9.1,0,13.6
			C188.1,133.6,184.3,133.6,180.5,133.6z"/>
		<path class="st22" d="M115.1,98.4c-1,5.9-2.1,11.8-3.1,17.7c-2.6-2.9-5.1-5.8-7.7-8.7c1-4.6,1.9-9.2,2.9-13.9
			C109.8,95.2,112.5,96.8,115.1,98.4z"/>
		<path class="st23" d="M205.8,161.3c0-4.5,0-9.1,0-13.6c2.1-2.1,4.2-4.3,6.3-6.4c0.8,1.8,2.1,3.6,2.4,5.5c0.7,3.6,1,7.4,1.4,11.1
			C212.6,159.1,209.2,160.2,205.8,161.3z"/>
		<path class="st24" d="M181.8,106.1c0-4.5,0-9.1,0-13.6c3.4,0,6.7,0,10.1,0c0,4.5,0,9,0,13.5C188.5,106.1,185.2,106.1,181.8,106.1z
			"/>
		<path class="st25" d="M107.2,93.6c-1,4.6-1.9,9.2-2.9,13.9c-2.4-0.2-4.8-0.3-7.2-0.5c0-4.7,0-9.3-0.1-14
			C100.4,93.2,103.8,93.4,107.2,93.6z"/>
		<path class="st26" d="M133.8,107.3c0-4.7,0-9.4-0.1-14.1c3,0,5.9,0,8.9,0c-0.4,4.6-0.8,9.2-1.3,13.8
			C138.8,107.1,136.3,107.2,133.8,107.3z"/>
		<path class="st27" d="M191.9,106.1c0-4.5,0-9,0-13.5c2.9,0,5.9,0,8.8,0c0,4.5,0,9,0,13.5C197.8,106.1,194.8,106.1,191.9,106.1z"/>
		<path class="st28" d="M200.7,106.1c0-4.5,0-9,0-13.5c3,0,5.9,0,8.9,0c0,4.5,0,9,0,13.6C206.6,106.1,203.7,106.1,200.7,106.1z"/>
		<path class="st27" d="M191.9,133.6c0-4.5,0-9.1,0-13.6c2.9,0,5.9,0,8.8,0c0,4.5,0,9.1,0,13.6C197.8,133.6,194.8,133.6,191.9,133.6
			z"/>
		<path class="st29" d="M39,161.3c0.1-3.9,0.1-7.8,0.2-11.8c3.3,0.1,6.6,0.3,9.9,0.4c0,3.8,0,7.5,0,11.3
			C45.7,161.3,42.3,161.3,39,161.3z"/>
		<path class="st30" d="M49.1,161.3c0-3.8,0-7.5,0-11.3c3.4,0,6.7,0,10.1,0c0,3.8,0,7.5,0,11.3C55.8,161.3,52.4,161.3,49.1,161.3z"
			/>
		<path class="st23" d="M215.9,123.5c-0.4,3.4-0.7,6.8-1.4,10.1c-0.4,1.8-1.7,3.5-2.6,5.2c-1.6-1.6-3.3-3.3-4.9-4.9
			c0.4-4.6,0.9-9.1,1.3-13.7C210.8,121.3,213.4,122.4,215.9,123.5z"/>
		<path class="st31" d="M208.3,120.2c-0.4,4.6-0.9,9.1-1.3,13.7c-2.1-0.1-4.2-0.2-6.3-0.2c0-4.5,0-9.1,0-13.6
			C203.2,120.1,205.8,120.1,208.3,120.2z"/>
		<path class="st32" d="M59.2,161.3c0-3.8,0-7.5,0-11.3c2.5,0.1,5,0.2,7.6,0.4c0,3.7,0,7.3,0,11C64.2,161.3,61.7,161.3,59.2,161.3z"
			/>
		<path class="st33" d="M66.7,161.3c0-3.7,0-7.3,0-11c2.1,2.1,4.2,4.2,6.3,6.3c0,1.5,0,3,0.1,4.5C71,161.3,68.9,161.3,66.7,161.3z"
			/>
	</g>
</g>
</svg>
