<?xml version="1.0" encoding="utf-8"?>
<!-- Generator: Adobe Illustrator 28.0.0, SVG Export Plug-In . SVG Version: 6.00 Build 0)  -->
<svg version="1.1" id="Layer_2_00000065778081548953729130000010343626189520199044_"
	 xmlns="http://www.w3.org/2000/svg" xmlns:xlink="http://www.w3.org/1999/xlink" x="0px" y="0px" viewBox="0 0 536.6 80"
	 style="enable-background:new 0 0 536.6 80;" xml:space="preserve">
<style type="text/css">
	.st0{fill:#FFFFFF;}
	.st1{fill:#FEF3F0;}
	.st2{fill:#E84991;}
	.st3{fill:#5A65AD;}
	.st4{fill:#F5586D;}
	.st5{fill:#B74CA1;}
	.st6{fill:#5C5DA9;}
	.st7{fill:#F88027;}
	.st8{fill:#F75E5E;}
	.st9{fill:#F45572;}
	.st10{fill:#B258A9;}
	.st11{fill:#EF4B8A;}
	.st12{fill:#E4579F;}
	.st13{fill:#D84EA0;}
	.st14{fill:#F3527A;}
	.st15{fill:#C14DA0;}
	.st16{fill:#F77537;}
	.st17{fill:#F96849;}
	.st18{fill:#F86351;}
	.st19{fill:#F96A46;}
	.st20{fill:#F8715C;}
	.st21{fill:#F77B30;}
	.st22{fill:#F25385;}
	.st23{fill:#F86456;}
	.st24{fill:#CB499E;}
	.st25{fill:#F96F3C;}
	.st26{fill:#7E56A6;}
	.st27{fill:#6D59A8;}
	.st28{fill:#8F52A5;}
	.st29{fill:#9E53A6;}
</style>
<g>
	<g>
		<path class="st0" d="M-0.7,0c179.3,0,358.7,0,538,0c0,26.7,0,53.3,0,80c-179.3,0-358.7,0-538,0C-0.7,53.3-0.7,26.7-0.7,0z M142,68
			c1.7,0,3.3,0,5,0c2-0.5,4.1-0.9,6.1-1.4c12.2-5.7,10.5-24.6,0-29.4c-2-0.5-4-1-6.1-1.5c-2,0-4,0-6,0c-2,0-4,0-6,0
			c-2.3,0-4.7,0-7,0c-1.6-1.1-3.2-2.3-4.9-3.4c0-1.2,0-2.4,0-3.6c1.3-1.2,2.6-2.5,4-3.7c1.6-0.1,3.3-0.1,4.9-0.2c2,0,4,0,6,0
			c1.7,0,3.3,0,5,0c2.3,0,4.7,0,7,0c7.6,0.3,11.2-3.1,10.8-10.6c-3.6,0-7.1,0-10.7,0c-2.3,0-4.7,0-7,0c-1.7,0-3.3,0-5,0
			c-2,0-4,0-6,0c-1.7,0-3.3,0-5,0c-2.4,0.8-4.7,1.7-7.1,2.5c-4.6,3.1-6.6,7.6-6.7,13c-1.7-2.7-3.4-5.4-5.2-8.1
			c-1.3-1.3-2.7-2.6-4-3.9c-2.3-1-4.7-2-7-3c-2-0.1-4-0.1-6.1-0.2c-3,1.4-6,2.7-9,4.1c-1.8,1.1-3.4,3.8-5.8,0.9c-2-1.3-4-2.6-6-3.9
			c-2.3-0.5-4.7-1-7-1.4c-2,0.4-4,0.9-6,1.3c-2,1.3-4,2.6-6.1,3.9c-1.7,2.4-3.5,4.7-5.2,7.1c-0.8,3.3-2.2,6.5-2.4,9.8
			c-0.4,7.8-0.1,15.7-0.2,23.6c0,1.5-0.7,3-1.1,4.4c-1.7-1.6-3.3-3.2-5-4.9c-2.3-0.1-4.6-0.2-7-0.3c-2.3,0-4.7,0-7,0
			c-2.3,0-4.7,0-7,0c-0.3-1.7-0.9-3.4-1-5.1c-0.1-10,0.1-20-0.2-29.9c-0.1-2.5-1.7-5-2.5-7.5c-1.8-1.1-3.5-2.1-5.9-3.6
			c0,19.1,0,36.9,0,54.9c1.7,0,3.2,0,4.6,0c1.7,0,3.3,0,5,0c2.3,0,4.7,0,7,0c2.3,0,4.7,0,7,0c2,0,4,0,6,0c2,0,4,0,6-0.1
			c2.1-0.4,4.1-0.9,6.2-1.3c3.9-2,4.9-5.5,5-9.4c0.2-8.2,0.4-16.4,0.7-24.5c1.4-1.9,2.8-3.9,4.2-5.8c1.6-0.5,3.3-1,4.9-1.4
			c2,0.6,3.9,1.2,5.9,1.8c1.4,2.5,2.8,5,4.2,7.5c0,11.1,0,22.2,0,33.3c7.4-0.8,10.3-4.3,10.5-12.4c0.2-7.9,0.3-15.8,0.5-23.6
			c2.3-2.1,4.6-4.2,6.8-6.4c2,0.1,3.9,0.3,5.9,0.4c1.7,1.6,3.4,3.1,5.1,4.7c0.4,7.9,0.7,15.8,1.4,23.7c0.2,3,1.3,5.9,1.9,8.9
			c2.6,1.7,5.1,3.3,7.7,5l0.5,0l0.5,0c3-0.1,6-0.1,9-0.2c2.3,0,4.7,0,7,0c2.3,0,4.7,0,7,0C138.7,68,140.4,68,142,68z"/>
		<path class="st1" d="M114.1,68.1l-0.5,0c0,0-0.5,0-0.5,0c0.1-3.1,0.1-6.2,0.2-9.3c0.2-9,0.4-17.9,0.6-26.9c0,6,2.8,10.2,8.1,12.8
			c2,0.5,4.1,1,6.1,1.5c2.3,0,4.7,0,7,0c2,0,4,0,6,0c2,0,4,0,6,0.1c1.6,1.2,3.2,2.3,4.8,3.5c0,1.3-0.1,2.6-0.1,3.9
			c-1.6,1.2-3.1,2.4-4.7,3.5c-1.7,0-3.3,0-5,0c-1.7,0-3.3,0-5,0c-2.3,0-4.7,0-7,0c-2.3,0-4.7,0-7,0C116.6,58,113.7,61.5,114.1,68.1z
			"/>
		<path class="st2" d="M76.2,19.5c2.5,2.9,4,0.2,5.8-0.9c0.7,4.4,1.5,8.8,2.2,13.3c-0.2,7.9-0.3,15.8-0.5,23.6
			c-0.2,8-3.1,11.6-10.5,12.4c0-11.2,0-22.2,0-33.3c0.6-1.5,1.6-2.9,1.8-4.4C75.6,26.6,75.9,23.1,76.2,19.5z"/>
		<path class="st3" d="M11.3,68c-1.5,0-2.9,0-4.6,0c0-18.1,0-35.9,0-54.9c2.4,1.4,4.2,2.5,5.9,3.6c-0.4,1.8-1.3,3.6-1.3,5.4
			C11.2,37.3,11.3,52.7,11.3,68z"/>
		<path class="st4" d="M113.9,32c-0.2,9-0.4,17.9-0.6,26.9c-0.1,3.1-0.1,6.2-0.2,9.3c-2.6-1.7-5.1-3.3-7.7-5c0.6-1.3,1.5-2.7,1.6-4
			c0.2-5.5-0.1-11.1,0.1-16.6c0.2-7,0.6-13.9,1-20.9c1.7,2.7,3.4,5.4,5.2,8.1C113.5,30.5,113.7,31.2,113.9,32z"/>
		<path class="st5" d="M54,32.6c-0.2,8.2-0.5,16.4-0.7,24.5c-0.1,4-1.1,7.5-5,9.4c-0.4-2.1-1.1-4.1-1.1-6.2c-0.1-9.7,0-19.3-0.1-29
			c0-1.6-0.8-3.3-1.3-4.9c1.7-2.4,3.5-4.7,5.2-7.1c0.4,3,0.6,5.9,1.2,8.9C52.5,29.8,53.4,31.1,54,32.6z"/>
		<path class="st6" d="M11.3,68c0-15.3,0-30.7,0.1-46c0-1.8,0.8-3.6,1.3-5.4c0.9,2.5,2.5,5,2.5,7.5c0.3,10,0.1,20,0.2,29.9
			c0,1.7,0.6,3.4,1,5.1c0,2.9,0,5.9,0,8.8C14.6,68,12.9,68,11.3,68z"/>
		<path class="st7" d="M151.7,53.8c0-1.3,0.1-2.6,0.1-3.9c0.4-4.2,0.8-8.5,1.3-12.7c10.5,4.8,12.2,23.7,0,29.4
			C152.7,62.3,152.2,58,151.7,53.8z"/>
		<path class="st8" d="M113.9,32c-0.2-0.8-0.4-1.5-0.6-2.3c0.1-5.4,2.1-9.9,6.7-13c1.1,4,2.1,8,3.2,12c0,1.2,0,2.4,0,3.6
			c-0.4,4.2-0.8,8.3-1.2,12.5C116.7,42.1,113.8,37.9,113.9,32z"/>
		<path class="st9" d="M108.1,21.7c-0.3,7-0.8,13.9-1,20.9c-0.2,5.5,0.1,11.1-0.1,16.6c0,1.4-1,2.7-1.6,4c-0.7-3-1.7-5.9-1.9-8.9
			c-0.6-7.9-0.9-15.8-1.4-23.7c0.7-4.3,1.3-8.6,2-12.9C105.4,19,106.8,20.3,108.1,21.7z"/>
		<path class="st10" d="M45.9,26.5c0.4,1.6,1.3,3.3,1.3,4.9c0.1,9.7,0,19.3,0.1,29c0,2.1,0.7,4.1,1.1,6.2c-2.1,0.4-4.1,0.9-6.2,1.3
			c0-1.2,0-2.4,0-3.6c0.4-1.5,1-2.9,1.1-4.4c0.1-7.9-0.1-15.7,0.2-23.6C43.6,33,45,29.8,45.9,26.5z"/>
		<path class="st7" d="M150,14.2c3.6,0,7.2,0,10.7,0c0.5,7.5-3.1,10.9-10.8,10.6C150,21.3,150,17.7,150,14.2z"/>
		<path class="st11" d="M84.3,31.9c-0.7-4.4-1.5-8.8-2.2-13.3c3-1.4,6-2.7,9-4.1c0,3.7,0,7.3,0,11C88.8,27.6,86.6,29.8,84.3,31.9z"
			/>
		<path class="st12" d="M76.2,19.5c-0.4,3.5-0.6,7.1-1.1,10.6c-0.2,1.5-1.2,2.9-1.8,4.4c-1.4-2.5-2.8-5-4.2-7.5
			c0.4-3.8,0.8-7.7,1.2-11.5C72.2,16.9,74.2,18.2,76.2,19.5z"/>
		<path class="st13" d="M70.2,15.6c-0.4,3.8-0.8,7.7-1.2,11.5c-2-0.6-3.9-1.2-5.9-1.8c0-3.7,0-7.4,0-11.1
			C65.5,14.7,67.9,15.2,70.2,15.6z"/>
		<path class="st14" d="M104.1,17.7c-0.7,4.3-1.3,8.6-2,12.9c-1.7-1.6-3.4-3.1-5.1-4.7c0-3.7,0.1-7.4,0.1-11.2
			C99.5,15.7,101.8,16.7,104.1,17.7z"/>
		<path class="st8" d="M114.1,68.1c-0.4-6.6,2.5-10.1,9-10.8c0,3.5,0,7.1,0,10.6C120.1,68,117.1,68.1,114.1,68.1z"/>
		<path class="st15" d="M54,32.6c-0.6-1.4-1.5-2.8-1.8-4.3c-0.6-2.9-0.8-5.9-1.2-8.9c2-1.3,4-2.6,6.1-3.9c0.4,3.7,0.7,7.5,1.1,11.2
			C56.8,28.7,55.4,30.6,54,32.6z"/>
		<path class="st16" d="M150,14.2c0,3.5,0,7.1,0,10.6c-2.3,0-4.7,0-7,0c0-3.5,0-7.1,0-10.6C145.4,14.2,147.7,14.2,150,14.2z"/>
		<path class="st17" d="M135,46.3c-2.3,0-4.7,0-7,0c0-3.5,0-7.1,0-10.6c2.3,0,4.7,0,7,0C135.1,39.3,135.1,42.8,135,46.3z"/>
		<path class="st18" d="M123.1,68c0-3.5,0-7.1,0-10.6c2.3,0,4.7,0,7,0c0,3.5,0,7.1,0,10.6C127.7,68,125.4,68,123.1,68z"/>
		<path class="st19" d="M130.1,68c0-3.5,0-7.1,0-10.6c2.3,0,4.7,0,7,0c0,3.5,0,7.1,0,10.6C134.7,68,132.4,68,130.1,68z"/>
		<path class="st20" d="M123.2,28.7c-1.1-4-2.1-8-3.2-12c2.4-0.8,4.7-1.7,7.1-2.5c0,3.6,0,7.2,0,10.8
			C125.8,26.2,124.5,27.4,123.2,28.7z"/>
		<path class="st21" d="M151.7,53.8c0.5,4.3,0.9,8.6,1.4,12.8c-2,0.5-4.1,0.9-6.1,1.4c0-3.6,0-7.1,0-10.7
			C148.6,56.1,150.2,55,151.7,53.8z"/>
		<path class="st21" d="M153.1,37.2c-0.4,4.2-0.8,8.5-1.3,12.7c-1.6-1.2-3.2-2.3-4.8-3.5c0-3.6,0-7.1,0-10.7
			C149,36.2,151.1,36.7,153.1,37.2z"/>
		<path class="st22" d="M97.1,14.7c0,3.7-0.1,7.4-0.1,11.2c-2-0.1-3.9-0.3-5.9-0.4c0-3.7,0-7.3,0-11C93.1,14.6,95.1,14.7,97.1,14.7z
			"/>
		<path class="st23" d="M128.1,35.7c0,3.5,0,7.1,0,10.6c-2-0.5-4.1-1-6.1-1.5c0.4-4.2,0.8-8.3,1.2-12.5
			C124.8,33.4,126.4,34.6,128.1,35.7z"/>
		<path class="st24" d="M58.2,26.7c-0.4-3.7-0.7-7.5-1.1-11.2c2-0.5,4-0.9,6-1.3c0,3.7,0,7.4,0,11.1C61.5,25.8,59.9,26.3,58.2,26.7z
			"/>
		<path class="st19" d="M138,24.8c-2,0-4,0-6,0c0-3.5,0-7,0-10.6c2,0,4,0,6,0C138,17.7,138,21.3,138,24.8z"/>
		<path class="st25" d="M135,46.3c0-3.5,0-7.1,0-10.6c2,0,4,0,6,0c0,3.5,0,7.1,0,10.6C139,46.3,137,46.3,135,46.3z"/>
		<path class="st16" d="M141,46.3c0-3.5,0-7.1,0-10.6c2,0,4,0,6,0c0,3.6,0,7.1,0,10.7C145,46.4,143,46.4,141,46.3z"/>
		<path class="st26" d="M23.3,59.1c2.3,0,4.7,0,7,0c0,2.9,0,5.9,0,8.8c-2.3,0-4.7,0-7,0C23.2,65,23.3,62.1,23.3,59.1z"/>
		<path class="st27" d="M23.3,59.1c0,2.9,0,5.9,0,8.8c-2.3,0-4.7,0-7,0c0-2.9,0-5.9,0-8.8C18.6,59.1,20.9,59.1,23.3,59.1z"/>
		<path class="st28" d="M30.2,68c0-2.9,0-5.9,0-8.8c2.3,0.1,4.6,0.2,7,0.3c-0.3,2.9-0.7,5.7-1,8.6C34.2,68,32.2,68,30.2,68z"/>
		<path class="st16" d="M147,57.3c0,3.6,0,7.1,0,10.7c-1.7,0-3.3,0-5,0c0-3.5,0-7.1,0-10.6C143.7,57.3,145.4,57.3,147,57.3z"/>
		<path class="st25" d="M142,57.3c0,3.5,0,7.1,0,10.6c-1.7,0-3.3,0-5,0c0-3.5,0-7.1,0-10.6C138.7,57.3,140.4,57.3,142,57.3z"/>
		<path class="st17" d="M132.1,14.2c0,3.5,0,7,0,10.6c-1.6,0.1-3.3,0.1-4.9,0.2c0-3.6,0-7.2,0-10.8
			C128.8,14.2,130.4,14.2,132.1,14.2z"/>
		<path class="st25" d="M138,24.8c0-3.5,0-7.1,0-10.6c1.7,0,3.3,0,5,0c0,3.5,0,7.1,0,10.6C141.4,24.8,139.7,24.8,138,24.8z"/>
		<path class="st29" d="M36.2,68c0.3-2.9,0.7-5.7,1-8.6c1.7,1.6,3.3,3.2,5,4.9c0,1.2,0,2.4,0,3.6C40.2,67.9,38.2,68,36.2,68z"/>
	</g>
</g>
</svg>
