<?xml version="1.0" encoding="utf-8"?>
<!-- Generator: Adobe Illustrator 28.0.0, SVG Export Plug-In . SVG Version: 6.00 Build 0)  -->
<svg version="1.1" id="Layer_2_00000177463264667478139670000007004513866941094815_"
	 xmlns="http://www.w3.org/2000/svg" xmlns:xlink="http://www.w3.org/1999/xlink" x="0px" y="0px" viewBox="0 0 536.6 80"
	 style="enable-background:new 0 0 536.6 80;" xml:space="preserve">
<style type="text/css">
	.st0{display:none;}
	.st1{display:inline;}
	.st2{fill:#330099;}
	.st3{display:none;fill:#6A0CF8;}
	.st4{display:none;fill:url(#SVGID_1_);}
	.st5{display:none;fill:#330099;}
	.st6{fill:#FCFCFC;}
	.st7{fill:#7F8BE4;}
	.st8{fill:#070707;}
	.st9{fill:#38079B;}
	.st10{fill:#090909;}
	.st11{fill:#080808;}
	.st12{fill:#0B0B0B;}
	.st13{fill:#37069B;}
	.st14{fill:#330098;}
	.st15{fill:#FEF2F1;}
	.st16{fill:#FD576E;}
	.st17{fill:#0D0D0D;}
	.st18{fill:#FE7E2A;}
	.st19{fill:#EB4890;}
	.st20{fill:#E64E99;}
	.st21{fill:#B74CB2;}
	.st22{fill:#5760D9;}
	.st23{fill:#FE5E5D;}
	.st24{fill:#B156BB;}
	.st25{fill:#FA5277;}
	.st26{fill:#605ED5;}
	.st27{fill:#D647A1;}
	.st28{fill:#FE6945;}
	.st29{fill:#FE7237;}
	.st30{fill:#7F56CA;}
	.st31{fill:#FE634F;}
	.st32{fill:#705ACF;}
	.st33{fill:#9B53C0;}
	.st34{fill:#FE725D;}
	.st35{fill:#F4F4F4;}
</style>
<g id="Layer_1-2">
	<g class="st0">
		<g class="st1">
			<path d="M408.5,25.2h5.4v4.9c3.6-4.9,8.4-6.5,13.8-5.9c5.5,0.6,9.6,3.4,12.4,7.9c1.7-1.7,3.2-3.5,5-4.9
				c7.5-5.9,23.6-4.4,26.6,10.7c0.3,1.6,0.5,3.2,0.5,4.8c0,8.3,0,16.7,0,25c0,0.2,0,0.4,0,0.8h-5.5V67c0-7.7,0.1-15.3,0-23
				c0-2.4-0.3-4.9-1-7.2c-1.5-4.9-5.4-7.6-10.6-7.6s-9.1,2.6-10.8,7.4c-0.6,1.9-1,3.9-1.1,5.9c-0.1,8.2-0.1,16.3-0.1,24.4
				c0,0.5,0,1,0,1.6h-5.5c0-0.5,0-1,0-1.5c0-7.8,0.1-15.5-0.1-23.3c0-2.5-0.4-5.2-1.3-7.6c-1.6-4.8-5.6-7.1-10.9-7
				c-5,0.1-8.9,2.7-10.3,7.4c-0.7,2.2-1,4.5-1.1,6.8c-0.1,7.8,0,15.7,0,23.5c0,0.5,0,1,0,1.6h-5.4V25.2L408.5,25.2z"/>
			<path d="M392.4,32.7V10h5.5v58.5h-5.4v-7.7c-5,6.6-11.3,9.3-19.1,8.7c-6.3-0.5-11.6-3.1-15.8-7.8c-7.8-8.8-7.1-22.8,1.4-31.1
				C367,22.8,383.2,20.6,392.4,32.7z M392.7,47c0.1-9.9-7.6-17.9-17.3-17.9c-10.1-0.1-17.7,7.6-17.7,17.8c0,10.1,7.5,17.6,17.8,17.7
				C384.9,64.6,392.6,56.7,392.7,47L392.7,47z"/>
			<path d="M338.5,33v-7.7h5.4v43.2h-5.4v-7.3c-4.6,5.7-10.5,8.5-17.7,8.3c-7.1-0.2-13.2-2.9-17.7-8.6c-7.4-9.4-6.4-22.9,2.2-30.7
				c4.9-4.4,10.7-6.4,17.2-6.2C329.2,24.4,334.4,27.2,338.5,33L338.5,33z M338.8,47c0-9.9-7.7-17.8-17.4-17.9
				c-10.1,0-17.7,7.6-17.7,17.9c0,10,7.5,17.6,17.6,17.6C331,64.6,338.7,56.8,338.8,47L338.8,47z"/>
			<path d="M498.6,25.3h5.4v5.4c0.3-0.3,0.5-0.4,0.6-0.5c4-5.1,9.4-6.6,15.6-5.9c10.5,1.2,15.9,9,16.2,18.2
				c0.3,8.5,0.1,16.9,0.1,25.4c0,0.2,0,0.4-0.1,0.7H531c0-0.5,0-1,0-1.5c0-8,0.1-16-0.1-24c-0.1-5.3-2.2-9.9-7.2-12.4
				c-8.2-4.1-17.5,0.6-19.2,9.7c-0.3,1.5-0.4,3-0.4,4.6c0,7.4,0,14.8,0,22.2v1.5h-5.4L498.6,25.3L498.6,25.3z"/>
			<path d="M482.8,68.5V25.2h5.4v43.2L482.8,68.5L482.8,68.5z"/>
			<path d="M482.8,19.8V10h5.4v9.8H482.8z"/>
		</g>
		<g class="st1">
			<path class="st2" d="M262.8,30.1v-5.4h9.5v43.7h-9.5v-5.3c-0.5,0.5-0.8,0.8-1.1,1c-6.6,6.3-16.7,7.6-24.6,3.1
				c-6.2-3.6-9.5-9.3-10.7-16.2c-1.3-7.7,0.3-14.7,5.5-20.7c6.6-7.6,18.7-10.1,27.9-3C260.8,28.2,261.7,29.1,262.8,30.1L262.8,30.1z
				 M250.7,60.2c3.8-0.1,7.5-2.3,9.9-6.6c1.6-3,2-6.2,1.6-9.5c-1-8-8.9-13.2-16.6-10.7c-5.6,1.9-8.4,6.2-9.1,11.9
				C235.7,53.2,241.8,60.2,250.7,60.2L250.7,60.2z"/>
			<path class="st2" d="M186.7,10h10.4v35l0.3,0.1c0.3-0.3,0.5-0.7,0.8-1c4.2-6.1,8.3-12.2,12.4-18.4c0.5-0.8,1.1-1.1,2-1
				c3.5,0.1,7,0,10.8,0c-5.4,7.3-10.6,14.4-15.8,21.5c5.9,7.4,11.8,14.8,17.9,22.4c-2.7,0-5.1,0-7.4,0c-2,0-4.7,0-5.8-0.3
				c-0.2-0.1-2.4-2.9-3.5-4.5c-3.5-4.9-7-9.7-10.6-14.6c-0.2-0.3-0.5-0.7-1-1.3v20.6h-10.5L186.7,10L186.7,10z"/>
			<path class="st2" d="M280.5,24.7h10.4v43.7h-10.4V24.7z"/>
			<path class="st2" d="M290.9,19.6h-10.4V10h10.4V19.6z"/>
		</g>
	</g>
	<g>
		<path class="st3" d="M124.8,80c-10.7,0-20.7-4.2-28.3-11.7L82.4,54.1L68.3,68.3C60.7,75.8,50.7,80,40,80s-20.7-4.2-28.3-11.7
			c-15.6-15.6-15.6-41,0-56.6s41-15.6,56.6,0l14.1,14.1l14.1-14.1c15.6-15.6,41-15.6,56.6,0L139,25.8c-7.8-7.8-20.5-7.8-28.3,0
			L96.6,40l14.1,14.1c3.8,3.8,8.8,5.9,14.1,5.9s10.4-2.1,14.1-5.9L153,68.2C145.6,75.8,135.5,80,124.8,80L124.8,80z M40,20
			c-5.1,0-10.2,2-14.1,5.9c-7.8,7.8-7.8,20.5,0,28.3s20.5,7.8,28.3,0L68.3,40L54.1,25.8C50.2,21.9,45.1,20,40,20z"/>
		
			<linearGradient id="SVGID_1_" gradientUnits="userSpaceOnUse" x1="0" y1="957.95" x2="153.1" y2="957.95" gradientTransform="matrix(1 0 0 1 0 -918)">
			<stop  offset="0.13" style="stop-color:#6A0CF8"/>
			<stop  offset="0.56" style="stop-color:#FD16B8"/>
			<stop  offset="0.97" style="stop-color:#FDBA7F"/>
		</linearGradient>
		<path class="st4" d="M11.7,11.7C3.9,19.5,0,29.7,0,40h20c0-5.1,2-10.2,5.9-14.1S34.9,20,40,20s10.2,2,14.1,5.9L68.3,40l14.1,14.1
			l14.1,14.1c7.6,7.6,17.6,11.7,28.3,11.7s20.7-4.2,28.3-11.7L139,54.1c-3.8,3.8-8.8,5.9-14.1,5.9s-10.4-2.1-14.1-5.9L96.5,40l0,0
			L82.4,25.8L68.3,11.7C52.7-3.9,27.3-3.9,11.7,11.7L11.7,11.7z"/>
		<rect x="72.4" y="30" transform="matrix(0.7071 -0.7071 0.7071 0.7071 -4.1463 69.9955)" class="st5" width="20" height="20"/>
	</g>
</g>
<g>
	<g>
		<path class="st6" d="M0.3,13.8c0-4.6,0-9.2,0-13.8c179.3,0,358.7,0,538,0c0,26.7,0,53.3,0,80c-179.3,0-358.7,0-538,0
			c0-4,0-7.9,0-11.9C0.6,68.1,1,68,1.3,68c1.6,0,3.3,0,4.9,0c1.7,0,3.3,0,5,0c2.3,0,4.7,0,7,0c3.7,0,7.3,0,11,0c2.3,0,4.7,0,7-0.1
			c2-0.4,4.1-0.8,6.1-1.3c1.7-3,4.4-5.9,4.8-9c0.8-5.8,0.4-11.8,0.2-17.7c-0.2-5.6,1.5-10.3,6-13.9c2.5-0.1,5-0.1,7.6-0.2
			c4.9,3,6.7,7.3,6.4,12.9c-0.2,6.2-0.1,12.5-0.1,18.7c0,3.5,0,7,0,11.4c2.4-1,3.7-1.6,5-2.2c3.7-2.5,5.4-5.9,5.2-10.4
			c-0.2-6.1-0.2-12.2,0-18.3c0.1-5.5,1.9-10.3,7.6-12.5c5.4-0.8,9,1.9,11.6,6.2c0.3,8.4,0.7,16.9,1,25.3c0.2,6.7,2.9,9.9,9.3,11.1
			l0.5,0c0,0,0.5,0,0.5,0c3-0.1,6-0.1,9-0.2c2.7,0,5.3,0,8,0c2.7,0,5.3,0,8,0c2.3,0,4.7,0,7,0c9.1,0.2,15.1-6,15.4-15.3
			c0.3-9-5.8-17.6-16.4-17c-2.7,0-5.3,0-8,0c-2.3,0-4.7,0-7,0c-2.3-0.9-4.5-1.9-6.8-2.8c0.3-2,0.6-4.1,0.9-6.1c1.3-0.7,2.6-1.3,4-2
			c3.6,0,7.3,0,10.9,0c3.3,0,6.7,0,10,0c8.3,0.5,12.3-2.9,11.7-10.6c-3.9,0-7.8,0-11.7,0c-3.3,0-6.7,0-10,0c-3.6,0-7.3,0-10.9,0
			c-1.4,0.2-2.7,0.4-4.1,0.6c-6.6,2-10,6.8-10.7,15c-2.3-3-4.7-6.1-7-9.1c-2.5-4.8-8.8-7.3-15.2-6.1c-4.3,2.3-8.6,4.6-12.8,6.9
			c-3-2.1-6-4.3-9.1-6.4c-4.1,0.2-8.1,0.4-12.2,0.6c-5.5,1.9-9,5.7-11,10.9c-0.8,3.3-2.2,6.5-2.4,9.8c-0.4,7.8-0.1,15.7-0.2,23.5
			c0,1.7-0.6,3.4-1,5c-0.9-3.7-3.1-5.8-7.1-5.8c-3.7,0-7.3,0-11,0c-2.3,0-4.7,0-7,0c-0.7-1.4-1.9-2.8-1.9-4.2
			C9.2,44.6,9.4,34.3,9.2,24c0-2.1-1.1-4.2-1.7-6.3c-2-1.2-4.1-2.5-6.1-3.7C1,13.9,0.6,13.9,0.3,13.8z M421.2,67
			c0-7.9,0-15.3,0-22.6c0-6.8,2.7-9.9,8.3-9.8c5.3,0.1,7.9,3.2,8,9.7c0,7.5,0,15,0,22.6c2.8,0,5.2,0,7.8,0c0-7.7,0-15.1,0-22.4
			c0-6.8,2.7-9.9,8.3-9.8c5.3,0.1,7.9,3.1,7.9,9.7c0,7.5,0,15,0,22.7c2.9,0,5.3,0,7.9,0c0-9.6,0.3-18.9-0.1-28.2
			c-0.3-7.1-6.1-12.4-13.3-11.9c-4.5,0.3-8.9,2.4-13.9,3.9c-5.9-5.8-13.1-5.3-20.5-0.8c-1.3-5.8-5.4-2.3-8.3-3.2
			c0,13.6,0,26.9,0,40.3C416,67,418.3,67,421.2,67z M225.9,26.5c0,14,0,27.2,0,40.5c2.6,0,4.9,0,7.7,0c0-1.8,0-3.4,0-5
			c0-6.4-0.1-12.8,0.1-19.3c0.2-5.8,4.5-9.2,10-8c4.7,1,6.2,4.5,6.2,8.9c0,7.8,0,15.7,0,23.3c2.9,0,5.2,0,7.8,0c0-7,0-13.7,0-20.4
			c0-8.8,2.2-11.9,8.3-11.9c5.9,0,8,3.1,8,11.6c0,6.9,0,13.7,0,20.7c2.9,0,5.3,0,7.9,0c0-9.5,0.3-18.7-0.1-27.8
			c-0.3-7.4-6-12.8-13.5-12.2c-4.4,0.3-8.7,2.3-13.7,3.8c-5.7-5.5-12.9-5.4-20.4-0.7C233.1,24.4,229,27.5,225.9,26.5z M395,30.5
			c-1.4-0.8-2.2-1.2-3-1.7c-9.5-5.5-19.7-0.6-20.6,10.4c-0.5,5.5-0.3,11.2,0.2,16.7c0.6,6.6,5.7,11.3,12.3,11.2
			c3.6-0.1,7.2-1.6,10.8-2.5c1.3,5,5.3,1.9,8.3,2.4c0-18.9,0-37.4,0-55.8c-2.7,0-5.1,0-7.9,0C395,17.5,395,23.7,395,30.5z
			 M351.5,64.4c1.8,4.9,5.5,2.2,8.7,2.6c0-9.6,0.1-18.8,0-28c-0.1-5-2-9.6-7.1-10.6c-5.3-1-11.1-0.9-16.5-0.4
			c-2.3,0.2-4.4,2.8-6.9,4.5c2.7,2,4.6,3.4,6.3,4.7c4.3-2.9,11.7-3.9,14.1-1.3c1.6,1.7,1.8,4.6,2.7,7.2c-5.9,0.4-10.8,0.3-15.5,1
			c-5.6,0.9-8.8,4.8-9.2,10.1c-0.4,5.3,2.6,10,7.9,11.9C341.3,68,346.6,67.8,351.5,64.4z M532,67c0-9.5,0.3-18.5-0.1-27.5
			c-0.3-7.6-5.8-12.9-13.1-12.8c-3.5,0.1-6.9,1.5-10.6,2.4c-1.2-4.6-5.1-2.1-8.3-2.3c0,13.6,0,26.9,0,40c2.7,0,5.1,0,7.8,0
			c0-8-0.1-15.7,0-23.4c0.1-6.2,3.8-9.5,9.3-8.9c4.4,0.5,6.8,3.6,6.8,9.3c0.1,7.7,0,15.4,0,23.1C526.8,67,529.1,67,532,67z
			 M322,32.2c-6.9-5.5-15.5-7.1-22.9-4.4c-5.3,1.9-8.2,6.3-7.8,11.8c0.3,5.1,3.9,8.8,9.6,9.8c2.6,0.5,5.3,0.7,7.9,0.9
			c2.8,0.2,6.1,0,6,4.1c-0.1,3.9-3.3,5-6.3,4.7c-4.9-0.6-9.7-2-15.5-3.2c-0.6,0.7-2.2,2.4-3.9,4.3c7.9,6.8,16.7,9.1,26.7,5.1
			c5.8-2.3,8-6.6,7.1-12.7c-0.8-5.4-4.5-8.6-10.7-9.1c-2.6-0.2-5.4,0.1-7.9-0.7c-1.8-0.6-3.2-2.6-4.8-3.9c1.7-1.4,3.5-4,5.3-4
			c4.2,0,8.3,1.2,13.3,2C318.8,35.9,320.3,34.2,322,32.2z M216.8,59c-9.4,0-18.3,0-27.7,0c0-16.3,0-32.1,0-47.9c-2.8,0-5,0-7.3,0
			c0,18.7,0,37.2,0,55.7c11.8,0,23.4,0,35,0C216.8,64.3,216.8,62,216.8,59z M488.8,67.1c0-13.7,0-27,0-40.1c-2.7,0-5.2,0-7.5,0
			c0,13.5,0,26.8,0,40.1C483.8,67.1,486.1,67.1,488.8,67.1z M488.9,18.5c0-2.6,0-4.9,0-7.4c-2.7,0-5.2,0-7.7,0c0,2.7,0,5,0,7.4
			C483.9,18.5,486.3,18.5,488.9,18.5z"/>
		<path class="st7" d="M1.3,68C1,68,0.6,68.1,0.3,68.1c0-18.1,0-36.2,0-54.3C0.6,13.9,1,13.9,1.4,14C1.4,32,1.4,50,1.3,68z"/>
		<path class="st8" d="M421.2,67c-2.9,0-5.2,0-7.8,0c0-13.4,0-26.6,0-40.3c2.9,0.8,6.9-2.6,8.3,3.2c7.4-4.5,14.6-5,20.5,0.8
			c5-1.4,9.3-3.5,13.9-3.9c7.2-0.5,13,4.7,13.3,11.9c0.4,9.3,0.1,18.7,0.1,28.2c-2.6,0-5,0-7.9,0c0-7.6,0-15.2,0-22.7
			c0-6.6-2.6-9.6-7.9-9.7c-5.6-0.1-8.2,3-8.3,9.8c0,7.4,0,14.8,0,22.4c-2.6,0-5,0-7.8,0c0-7.5,0-15.1,0-22.6c0-6.5-2.6-9.6-8-9.7
			c-5.6-0.1-8.3,3-8.3,9.8C421.2,51.8,421.2,59.2,421.2,67z"/>
		<path class="st9" d="M225.9,26.5c3.1,1,7.2-2.1,8.2,3.4c7.5-4.7,14.7-4.8,20.4,0.7c5-1.5,9.3-3.5,13.7-3.8
			c7.5-0.5,13.2,4.8,13.5,12.2c0.3,9.2,0.1,18.4,0.1,27.8c-2.6,0-5,0-7.9,0c0-6.9,0-13.8,0-20.7c0-8.5-2.1-11.6-8-11.6
			c-6-0.1-8.2,3.1-8.3,11.9c0,6.7,0,13.4,0,20.4c-2.6,0-4.9,0-7.8,0c0-7.7,0-15.5,0-23.3c0-4.4-1.5-7.8-6.2-8.9
			c-5.5-1.2-9.8,2.2-10,8c-0.2,6.4-0.1,12.8-0.1,19.3c0,1.6,0,3.2,0,5c-2.8,0-5.1,0-7.7,0C225.9,53.7,225.9,40.5,225.9,26.5z"/>
		<path class="st10" d="M395,30.5c0-6.8,0-12.9,0-19.4c2.8,0,5.2,0,7.9,0c0,18.4,0,36.9,0,55.8c-3-0.5-7.1,2.6-8.3-2.4
			c-3.6,0.9-7.2,2.4-10.8,2.5c-6.6,0.1-11.7-4.6-12.3-11.2c-0.5-5.5-0.6-11.2-0.2-16.7c1-10.9,11.1-15.8,20.6-10.4
			C392.8,29.3,393.6,29.7,395,30.5z M395.3,46.7c-0.1,0-0.2,0-0.3,0c0-1.5,0.2-3,0-4.4c-0.7-5.5-3-7.6-7.8-7.7
			c-5-0.1-7.3,1.8-7.9,7.4c-0.4,3.7-0.2,7.5,0.2,11.2c0.5,3.9,2.9,6,7.1,6.1c4.3,0.2,7-1.7,7.9-5.8C395,51.3,395.1,49,395.3,46.7z"
			/>
		<path class="st11" d="M351.5,64.4c-4.9,3.4-10.2,3.6-15.6,1.7c-5.2-1.8-8.3-6.6-7.9-11.9c0.4-5.3,3.6-9.2,9.2-10.1
			c4.7-0.8,9.5-0.7,15.5-1c-0.9-2.6-1.1-5.5-2.7-7.2c-2.4-2.6-9.8-1.5-14.1,1.3c-1.8-1.3-3.6-2.7-6.3-4.7c2.5-1.7,4.6-4.3,6.9-4.5
			c5.5-0.5,11.2-0.6,16.5,0.4c5.2,1,7.1,5.7,7.1,10.6c0.1,9.2,0,18.4,0,28C357,66.6,353.3,69.3,351.5,64.4z M353.8,50.4
			c-6,0-10-0.3-13.9,0.1c-1.6,0.2-3.4,1.7-4.5,3.1c-0.5,0.7,0.5,3.5,1.1,3.6c4.2,0.7,8.6,1.6,12.7,1
			C350.9,58.1,351.9,53.9,353.8,50.4z"/>
		<path class="st12" d="M532,67c-2.9,0-5.2,0-8,0c0-7.8,0.1-15.5,0-23.1c-0.1-5.7-2.4-8.8-6.8-9.3c-5.5-0.7-9.2,2.7-9.3,8.9
			c-0.2,7.7,0,15.4,0,23.4c-2.7,0-5.1,0-7.8,0c0-13.2,0-26.4,0-40c3.2,0.2,7-2.2,8.3,2.3c3.7-0.9,7.1-2.3,10.6-2.4
			c7.2-0.2,12.7,5.2,13.1,12.8C532.2,48.5,532,57.6,532,67z"/>
		<path class="st13" d="M322,32.2c-1.7,2-3.2,3.7-4,4.6c-5-0.8-9.2-2-13.3-2c-1.8,0-3.5,2.6-5.3,4c1.6,1.4,3,3.3,4.8,3.9
			c2.4,0.8,5.2,0.5,7.9,0.7c6.2,0.5,9.9,3.7,10.7,9.1c0.9,6-1.3,10.3-7.1,12.7c-10,4.1-18.8,1.7-26.7-5.1c1.7-1.9,3.3-3.6,3.9-4.3
			c5.8,1.2,10.6,2.7,15.5,3.2c3,0.3,6.2-0.8,6.3-4.7c0.1-4.1-3.2-3.8-6-4.1c-2.6-0.2-5.3-0.4-7.9-0.9c-5.6-1-9.2-4.8-9.6-9.8
			c-0.4-5.5,2.5-9.9,7.8-11.8C306.5,25.1,315.1,26.7,322,32.2z"/>
		<path class="st14" d="M216.8,59c0,3,0,5.3,0,7.8c-11.6,0-23.1,0-35,0c0-18.5,0-37,0-55.7c2.3,0,4.5,0,7.3,0c0,15.8,0,31.6,0,47.9
			C198.5,59,207.4,59,216.8,59z"/>
		<path class="st15" d="M108.1,68.1l-0.5,0c0,0-0.5,0-0.5,0c0.1-2.4,0.2-4.9,0.3-7.3c0.2-9.6,0.3-19.2,0.5-28.8
			c0,6,2.8,10.1,8.1,12.8c2.7,0.5,5.4,1,8.1,1.6c2.3,0,4.7,0,7,0c2.7,0,5.3,0,8,0c3.3,0.3,6.5,1.1,6.7,5c0.2,3.6-1.9,5.7-5.7,6
			c-2.3,0-4.7,0-7,0c-2.7,0-5.3,0-8,0c-2.7,0-5.3,0-8,0C110.6,58,107.6,61.6,108.1,68.1z"/>
		<path class="st16" d="M107.9,32c-0.2,9.6-0.3,19.2-0.5,28.8c0,2.4-0.2,4.9-0.3,7.3c-6.4-1.2-9.1-4.4-9.3-11.1
			c-0.3-8.4-0.7-16.9-1-25.3c0.8-1.4,1.8-2.6,2.3-4.1c0.7-2.3,0.9-4.6,1.3-7c2.3,3,4.7,6.1,7,9.1C107.5,30.5,107.7,31.3,107.9,32z"
			/>
		<path class="st17" d="M488.8,67.1c-2.6,0-4.9,0-7.5,0c0-13.4,0-26.6,0-40.1c2.4,0,4.8,0,7.5,0C488.8,40.1,488.8,53.3,488.8,67.1z"
			/>
		<path class="st18" d="M140,57.3c3.8-0.2,5.8-2.4,5.7-6c-0.2-4-3.4-4.7-6.7-5c0-3.5,0-7.1,0-10.6c10.6-0.6,16.7,8,16.4,17
			C155.1,62,149.1,68.1,140,68C140,64.4,140,60.9,140,57.3z"/>
		<path class="st19" d="M72.2,21.5c4.3-2.3,8.6-4.6,12.8-6.9c0,3.6,0,7.3,0.1,10.9c-5.8,2.2-7.5,7-7.6,12.5
			c-0.1,6.1-0.2,12.2,0,18.3c0.1,4.5-1.6,7.9-5.2,10.4C72.3,51.6,72.2,36.5,72.2,21.5z"/>
		<path class="st20" d="M72.2,21.5c0,15.1,0,30.1,0,45.2c-1.3,0.6-2.6,1.1-5,2.2c0-4.4,0-7.9,0-11.4c0-6.2-0.2-12.5,0.1-18.7
			c0.2-5.6-1.6-9.9-6.4-12.9c4.3-2.9,1.4-7.2,2.3-10.8C66.2,17.2,69.2,19.3,72.2,21.5z"/>
		<path class="st21" d="M39.9,26.5c2.1-5.2,5.6-9,11-10.9c0.8,3.5,1.6,6.9,2.4,10.4c-4.6,3.5-6.2,8.2-6,13.9
			c0.2,5.9,0.6,11.9-0.2,17.7c-0.4,3.2-3.1,6-4.8,9c0-11.6,0-23.1-0.2-34.7C42.1,30.1,40.7,28.3,39.9,26.5z"/>
		<path class="st22" d="M1.3,68c0-18,0-36,0-54c2,1.2,4.1,2.5,6.1,3.7c-0.4,1.7-1.1,3.3-1.1,5C6.2,37.8,6.3,52.9,6.3,68
			C4.6,68,3,68,1.3,68z"/>
		<path class="st23" d="M107.9,32c-0.2-0.8-0.4-1.5-0.5-2.3c0.8-8.2,4.2-13,10.7-15c0,4,0.1,8,0.1,12c-0.3,2-0.6,4.1-0.9,6.1
			c-0.4,4-0.9,7.9-1.3,11.9C110.7,42.2,107.8,38,107.9,32z"/>
		<path class="st24" d="M39.9,26.5c0.8,1.8,2.2,3.6,2.2,5.4c0.2,11.6,0.2,23.1,0.2,34.7c-2,0.4-4.1,0.8-6.1,1.3c0-1,0.1-2,0.1-3
			c0.3-1.7,0.9-3.4,1-5c0.1-7.8-0.1-15.7,0.2-23.5C37.7,33.1,39.1,29.8,39.9,26.5z"/>
		<path class="st25" d="M85.1,25.5c0-3.6,0-7.3-0.1-10.9c6.5-1.3,12.7,1.2,15.2,6.1c-0.4,2.3-0.6,4.7-1.3,7
			c-0.4,1.5-1.5,2.7-2.3,4.1C94.1,27.4,90.6,24.7,85.1,25.5z"/>
		<path class="st26" d="M6.3,68c0-15.1,0-30.2,0.1-45.3c0-1.7,0.7-3.3,1.1-5c0.6,2.1,1.7,4.2,1.7,6.3c0.2,10.3,0,20.6,0.2,30.9
			c0,1.4,1.2,2.8,1.9,4.2c0,2.9,0,5.9,0,8.8C9.6,68,7.9,68,6.3,68z"/>
		<path class="st27" d="M53.4,26c-0.8-3.5-1.6-6.9-2.4-10.4c4.1-0.2,8.1-0.4,12.2-0.6c-0.8,3.6,2,7.9-2.3,10.8
			C58.4,25.9,55.9,26,53.4,26z"/>
		<path class="st28" d="M122.1,14.2c3.6,0,7.3,0,10.9,0c0,3.5,0,7,0,10.6c-3.6,0-7.3,0-10.9,0C122.1,21.3,122.1,17.7,122.1,14.2z"/>
		<path class="st18" d="M143,14.2c3.9,0,7.8,0,11.7,0c0.5,7.7-3.4,11.1-11.7,10.6C143,21.3,143,17.7,143,14.2z"/>
		<path class="st29" d="M143,14.2c0,3.5,0,7.1,0,10.6c-3.3,0-6.7,0-10,0c0-3.5,0-7,0-10.6C136.4,14.2,139.7,14.2,143,14.2z"/>
		<path class="st30" d="M29.2,68c-3.7,0-7.3,0-11,0c0-2.9,0-5.9,0-8.8c3.7,0,7.3,0,11,0C29.2,62.1,29.2,65,29.2,68z"/>
		<path class="st29" d="M139,35.7c0,3.5,0,7.1,0,10.6c-2.7,0-5.3,0-8,0c0-3.5,0-7.1,0-10.6C133.7,35.7,136.4,35.7,139,35.7z"/>
		<path class="st31" d="M117.1,57.3c2.7,0,5.3,0,8,0c0,3.5,0,7.1,0,10.6c-2.7,0-5.3,0-8,0C117.1,64.4,117.1,60.9,117.1,57.3z"/>
		<path class="st28" d="M125.1,68c0-3.5,0-7.1,0-10.6c2.7,0,5.3,0,8,0c0,3.5,0,7.1,0,10.6C130.4,68,127.7,68,125.1,68z"/>
		<path class="st31" d="M116,44.8c0.4-3.9,0.9-7.9,1.3-11.9c2.3,0.9,4.5,1.9,6.8,2.8c0,3.5,0,7.1,0,10.6
			C121.4,45.8,118.7,45.3,116,44.8z"/>
		<path class="st23" d="M117.1,57.3c0,3.5,0,7.1,0,10.6c-3,0.1-6,0.1-9,0.2C107.6,61.6,110.6,58,117.1,57.3z"/>
		<path class="st28" d="M124.1,46.3c0-3.5,0-7.1,0-10.6c2.3,0,4.7,0,7,0c0,3.5,0,7.1,0,10.6C128.7,46.3,126.4,46.3,124.1,46.3z"/>
		<path class="st29" d="M133.1,68c0-3.5,0-7.1,0-10.6c2.3,0,4.7,0,7,0c0,3.5,0,7.1,0,10.6C137.7,68,135.4,68,133.1,68z"/>
		<path class="st17" d="M488.9,18.5c-2.6,0-5,0-7.7,0c0-2.4,0-4.7,0-7.4c2.5,0,5,0,7.7,0C488.9,13.6,488.9,16,488.9,18.5z"/>
		<path class="st32" d="M18.3,59.1c0,2.9,0,5.9,0,8.8c-2.3,0-4.7,0-7,0c0-2.9,0-5.9,0-8.8C13.6,59.1,15.9,59.1,18.3,59.1z"/>
		<path class="st33" d="M29.2,68c0-2.9,0-5.9,0-8.8c4,0,6.3,2,7.1,5.8c0,1-0.1,2-0.1,3C33.9,67.9,31.5,67.9,29.2,68z"/>
		<path class="st34" d="M122.1,14.2c0,3.5,0,7.1,0,10.6c-1.3,0.7-2.6,1.3-4,2c0-4-0.1-8-0.1-12C119.4,14.6,120.8,14.4,122.1,14.2z"
			/>
		<path class="st35" d="M395.3,46.7c-0.3,2.3-0.3,4.6-0.8,6.8c-0.9,4.1-3.5,6-7.9,5.8c-4.2-0.2-6.6-2.3-7.1-6.1
			c-0.5-3.7-0.6-7.5-0.2-11.2c0.6-5.6,2.9-7.5,7.9-7.4c4.8,0.1,7,2.3,7.8,7.7c0.2,1.4,0,2.9,0,4.4C395.1,46.7,395.2,46.7,395.3,46.7
			z"/>
		<path class="st35" d="M353.8,50.4c-1.9,3.5-2.9,7.7-4.5,7.9c-4.1,0.7-8.5-0.3-12.7-1c-0.6-0.1-1.5-3-1.1-3.6c1-1.4,2.8-3,4.5-3.1
			C343.8,50.1,347.8,50.4,353.8,50.4z"/>
	</g>
</g>
</svg>
